<svg width="250" height="250" viewBox="0 0 250 250" fill="none" xmlns="http://www.w3.org/2000/svg">
<rect width="250" height="250" fill="#16142A"/>
<path d="M180.451 103.015L125 172.374L69.5495 103.015H50L125 181.575L200 103.015H180.451Z" fill="#FFFBF4"/>
<path d="M124.997 166.429L128.135 160.667L131.423 123.288H118.481L121.649 160.667L124.997 166.429Z" fill="#FFFBF4"/>
<path d="M134.446 151.739L167.3 97.0127H149.168L144.1 112.882H138.247H111.759H105.876L100.807 97.0127H82.6758L115.56 151.739L114.021 138.284L108.199 120.062H118.185H131.7H141.807L135.984 138.284L134.446 151.739Z" fill="#FFFBF4"/>
<path d="M177.073 79H125.032H125.001H124.941H72.8997L54.7983 95.8946H72.1153L85.993 88.6843H115.528L117.308 109.652H124.941H125.001H125.032H132.695L134.444 88.6843H164.01L177.857 95.8946H195.205L177.073 79Z" fill="#FFFBF4"/>
</svg>
